<?xml version="1.0" encoding="UTF-8" standalone="no"?>
<svg width="205px" height="109px" viewBox="0 0 205 109" version="1.1" xmlns="http://www.w3.org/2000/svg" xmlns:xlink="http://www.w3.org/1999/xlink">
    <!-- Generator: Sketch 39.1 (31720) - http://www.bohemiancoding.com/sketch -->
    <title>Combined Shape</title>
    <desc>Created with Sketch.</desc>
    <defs></defs>
    <g id="Page-1" stroke="none" stroke-width="1" fill="none" fill-rule="evenodd">
        <path d="M48.6629545,72.7162681 C46.6505484,77.0977915 44.3689672,81.6268497 41.8371429,86 C30.8371418,104.999999 9.11346309,106.057027 3.11346307,98.057028 C-2.88653694,90.057029 -0.162857971,78 10.837143,70 C21.8371439,62 41.8371429,65 41.8371429,65 C41.8371429,65 47.7236803,52.9429722 51,32 C54.2763197,11.0570278 53,9.05702782 52.1134627,8.05702801 C36.1134627,9.05702801 26.1134623,19.3032384 26.1134623,26.0570273 C26.1134623,32.8108163 27.1134631,35.057028 27.1134631,35.057028 C27.1134631,35.057028 15.1134633,32.0570273 15.1134631,21.057028 C15.1134628,10.0570286 33.1134657,4.05702786 49.1134631,1.05702797 C65.1134604,-1.94297192 66.1134635,1.05702775 65.1134631,15.057028 C64.1134627,29.0570282 59.1134643,45.057029 59.1134643,45.057029 C59.1134643,45.057029 56.3765341,54.625754 51.3497777,66.596952 C54.6685508,67.6711967 57.7977995,69.4680445 59,72.4735456 C62,79.9735452 53,79 53,79 C53,79 54,78 53,76 C52.0190821,74.0381642 51.1462911,73.629298 48.6629545,72.7162681 Z M157.973698,61.0962204 C154.440278,64.6420155 145.482419,73.0513553 140.735065,72.2601296 C134.735064,71.2601296 152.735065,22.2601296 153.735065,18.2601296 C154.735066,14.2601296 154.26965,10.2601296 149,9.2601296 C143.73035,8.26012957 141,10.2601296 140,13.2601296 C142,12.2601296 142.476503,13.4358886 142,16.2601296 C140.899991,22.7799001 132.009328,53.831218 128.765014,64.1681819 C124.516383,68.0440788 118.382795,72.8680846 114.735065,72.2601296 C108.735064,71.2601296 126.735065,22.2601296 127.735065,18.2601296 C128.735066,14.2601296 128.26965,10.2601296 123,9.2601296 C117.73035,8.26012958 115,10.2601296 114,13.2601296 C116,12.2601296 116.476503,13.4358886 116,16.2601296 C115.092192,21.6407247 108.87835,43.729184 104.911075,57.0939337 C103.96741,58.907095 101.929415,62.054341 97.6729202,66.3108368 C90.6729221,73.3108368 84.8826808,75.0124632 80.6729221,74.3108368 C74.6729221,73.3108368 72.999514,71.3108351 72.999514,66.3108351 C92.6729221,64.3108351 98.6729202,55.3108351 101.67292,47.3108351 C104.67292,39.3108351 101.67292,31.310835 88.5302592,33.3108351 C75.3875982,35.3108351 65.5733955,46.3108351 63.0226328,56.3108351 C60.4718701,66.3108351 61.6686049,80.3108351 78.6729221,80.3108351 C88.018636,80.3108351 91.6729221,77.3108368 97.6729202,73.3108351 C98.9926227,72.4310327 100.095955,71.5096525 101.01928,70.5954113 C100.757094,75.1868747 103.160687,80.2601306 108.735065,80.2601296 C115.735065,80.2601283 118.735065,78.2601296 122.735065,75.2601296 C123.928448,74.3650926 125.45345,73.0520199 127.005974,71.6500172 C127.141455,75.9299491 129.585078,80.2601305 134.735065,80.2601296 C141.735065,80.2601283 144.735065,78.2601296 148.735065,75.2601296 C150.714939,73.775225 153.607568,71.1397098 156.024327,68.8564073 C156.016035,68.9045851 156.007925,68.952451 156,69 C155,75 155,80 164,80 C173,80 181,71.5946732 181,71.5946732 C181,71.5946732 171.5,89 157,96 C142.5,103 138,100.189349 138,100.189349 C138,100.189349 138,108.189354 149,108.189349 C160,108.189344 175.000001,96 185,84 C194.999999,72 205.000001,51.1893491 205,42.1893491 C204.999999,33.1893491 192,35.1893491 192,35.1893491 C192,35.1893491 193.999983,33.8824459 194,39 C194.00001,42.0000001 191,51 188,57 L184,65 C184,65 177,73 170,73 C163,73 171.841676,54.75553 174,49 C177,41 177,36.3786982 170,35.1893491 C163,34 162,39 162,39 C162,39 165,38 164,42.1893492 C163.287957,45.1723476 160.162215,53.7304359 157.973698,61.0962204 Z M39.837144,71 C39.837144,71 24.8371436,68.9999999 16.8371434,74.9999998 C8.83714317,80.9999997 6.83714344,90.0000004 12.8371432,93.0000004 C18.837143,96.0000004 27.8371445,90.9999986 31.8371435,85.9999997 C35.8371426,81.0000007 39.837144,71 39.837144,71 Z M73.6729217,61.3108347 C73.6729217,61.3108347 76.6729217,42.3108351 87.6729217,39.3108351 C98.6729217,36.3108351 90.6729217,55.3108354 84.6729217,58.3108351 C78.6729217,61.3108348 73.6729217,61.3108347 73.6729217,61.3108347 Z" id="Combined-Shape" fill="#FFFFFF"></path>
    </g>
</svg>