<?xml version="1.0" encoding="UTF-8" standalone="no"?>
<svg width="205px" height="109px" viewBox="0 0 205 109" version="1.1" xmlns="http://www.w3.org/2000/svg" xmlns:xlink="http://www.w3.org/1999/xlink">
    <!-- Generator: Sketch 39.1 (31720) - http://www.bohemiancoding.com/sketch -->
    <title>Combined Shape</title>
    <desc>Created with Sketch.</desc>
    <defs></defs>
    <g id="Page-1" stroke="none" stroke-width="1" fill="none" fill-rule="evenodd">
        <path d="M48.3156388,72.5889818 C46.389205,76.6615441 44.2244161,80.8765288 41.8371429,85 C30.8371418,103.999999 9.11346309,106.057027 3.11346307,98.057028 C-2.88653694,90.057029 -0.162857971,78 10.837143,70 C21.8371439,62 41.8371429,65 41.8371429,65 C41.8371429,65 47.8371429,52 51.1134627,31.0570278 C54.3897824,10.1140556 52.9017078,10.4217638 52.1134627,8.05702801 C36.1134627,9.05702801 26.1134623,19.3032384 26.1134623,26.0570273 C26.1134623,32.8108163 27.1134631,35.057028 27.1134631,35.057028 C27.1134631,35.057028 15.1134633,32.0570273 15.1134631,21.057028 C15.1134628,10.0570286 33.1134657,4.05702786 49.1134631,1.05702797 C65.1134604,-1.94297192 66.1134635,1.05702775 65.1134631,15.057028 C64.1134627,29.0570282 59.1134643,45.057029 59.1134643,45.057029 C59.1134643,45.057029 56.2753684,54.5272536 51.0712979,66.5086233 C54.4922515,67.5717697 57.7642227,69.3841026 59,72.4735456 C62,79.9735452 53,79 53,79 C53,79 54,78 53,76 C51.9746769,73.9493537 51.0674919,73.5954625 48.3156388,72.5889818 Z M158.433368,60.3714482 C155.288378,63.5742126 145.704705,72.8282733 140.735065,72 C134.735064,71 152.735065,22 153.735065,18 C154.735066,14 154,8.99999999 149,9 C144,9.00000001 141,10 140,13 C142,12 142.476503,13.175759 142,16 C140.899991,22.5197705 132.009328,53.5710884 128.765014,63.9080523 C124.516383,67.7839492 118.382795,72.607955 114.735065,72 C108.735064,71 126.735065,22 127.735065,18 C128.735066,14 128,8.99999999 123,9 C118,9.00000001 115,10 114,13 C116,12 116.476503,13.175759 116,16 C115.078758,21.460218 108.693281,44.1264509 104.73645,57.4213122 C103.724664,59.2742402 101.683643,62.3001131 97.6729202,66.3108368 C90.6729221,73.3108368 84.8826808,75.0124632 80.6729221,74.3108368 C74.6729221,73.3108368 72.999514,71.3108351 72.999514,66.3108351 C92.6729221,64.3108351 98.6729202,55.3108351 101.67292,47.3108351 C104.67292,39.3108351 101.67292,31.310835 88.5302592,33.3108351 C75.3875982,35.3108351 65.5733955,46.3108351 63.0226328,56.3108351 C60.4718701,66.3108351 61.6686049,80.3108351 78.6729221,80.3108351 C88.018636,80.3108351 91.6729221,77.3108368 97.6729202,73.3108351 C98.9867174,72.4349696 100.086076,71.5178975 101.006875,70.6076847 C100.853214,75.1250431 103.270715,80.000001 108.735065,80 C115.735065,79.9999987 118.735065,78 122.735065,75 C123.928448,74.104963 125.45345,72.7918903 127.005974,71.3898876 C127.141455,75.6698196 129.585078,80.0000009 134.735065,80 C141.735065,79.9999987 144.735065,78 148.735065,75 C150.730571,73.5033708 153.653305,70.8378889 156.081485,68.5422581 C156.052151,68.6976374 156.024956,68.8502639 156,69 C155,75 155,80 164,80 C173,80 181,71.5946732 181,71.5946732 C181,71.5946732 171.5,89 157,96 C142.5,103 138,100.189349 138,100.189349 C138,100.189349 138,108.189354 149,108.189349 C160,108.189344 175.000001,96 185,84 C194.999999,72 205.000001,51.1893491 205,42.1893491 C204.999999,33.1893491 192,35.1893491 192,35.1893491 C192,35.1893491 193.999983,33.8824459 194,39 C194.00001,42.0000001 191,51 188,57 L184,65 C184,65 177,73 170,73 C163,73 173.5,56 175,50 C177.581942,39.6722304 175,35.1893491 168,35.1893491 C161,35.1893491 162,39 162,39 C162,39 164,37.3786983 164,42.1893492 C164,45.4834854 160.829946,53.3509884 158.433368,60.3714482 Z M39.837144,71 C39.837144,71 24.8371436,68.9999999 16.8371434,74.9999998 C8.83714317,80.9999997 6.83714344,90.0000004 12.8371432,93.0000004 C18.837143,96.0000004 27.8371445,90.9999986 31.8371435,85.9999997 C35.8371426,81.0000007 39.837144,71 39.837144,71 Z M73.6729217,61.3108347 C73.6729217,61.3108347 76.6729217,42.3108351 87.6729217,39.3108351 C98.6729217,36.3108351 90.6729217,55.3108354 84.6729217,58.3108351 C78.6729217,61.3108348 73.6729217,61.3108347 73.6729217,61.3108347 Z" id="Combined-Shape" fill="#FFFFFF"></path>
    </g>
</svg>